<svg viewBox="0 0 64 64" xmlns="http://www.w3.org/2000/svg">
  <defs>
    <mask id="opening">
      <rect width="64" height="64" fill="white"/>
      <polygon points="42,32 37,40.66 27,40.66 22,32 27,23.34 37,23.34" fill="black"/>
    </mask>
  </defs>
  <g mask="url(#opening)">
    <path d="M 32 32 L 60 32 A 28 28 0 0 1 46 56.25 Z" fill="#00E9B1"/>
    <path d="M 32 32 L 46 56.25 A 28 28 0 0 1 18 56.25 Z" fill="#00A47C"/>
    <path d="M 32 32 L 18 56.25 A 28 28 0 0 1 4 32 Z" fill="#00E9B1"/>
    <path d="M 32 32 L 4 32 A 28 28 0 0 1 18 7.75 Z" fill="#00A47C"/>
    <path d="M 32 32 L 18 7.75 A 28 28 0 0 1 46 7.75 Z" fill="#00E9B1"/>
    <path d="M 32 32 L 46 7.75 A 28 28 0 0 1 60 32 Z" fill="#00A47C"/>
  </g>
</svg>
